# xmcd CD database file
#
# Track frame offsets:
#	150
#	25061
#	51001
#	72850
#	87587
#	103918
#	126872
#	149373
#	171245
#	190242
#	211003
#	236821
#	266981
#
# Disc length: 3787 seconds
#
# Revision: 0
# Processed by: cddbd v1.5.1PL0 Copyright (c) Steve Scherf et al.
# Submitted via: CDex 1.51
#
DISCID=c30ec90d
DTITLE=Mr.Children - Q
DYEAR=2000
DGENRE=Japanese Rock
TTITLE0=CENTER OF UNIVERSE
TTITLE1=その向こうへ行こう
TTITLE2=NOT FOUND
TTITLE3=スロースターター
TTITLE4=Surrender
TTITLE5=つよがり
TTITLE6=十二月のセントラルパークブルース
TTITLE7=友とコーヒーと嘘と胃袋
TTITLE8=ロードムービー
TTITLE9=Everything is made from a dream
TTITLE10=口笛
TTITLE11=Hallelujah
TTITLE12=安らげる場所
EXTD=YEAR: 2000
EXTT0=
EXTT1=
EXTT2=
EXTT3=
EXTT4=
EXTT5=
EXTT6=
EXTT7=
EXTT8=
EXTT9=
EXTT10=
EXTT11=
EXTT12=
PLAYORDER=
